<svg xmlns="http://www.w3.org/2000/svg" viewBox="0 0 48 48" width="18" height="18">
  <path fill="#EA4335" d="M24 9.5c3.2 0 5.4 1.4 6.7 2.6l4.9-4.9C32.6 4.2 28.6 2.5 24 2.5 14.9 2.5 7.2 7.9 4.3 15.7l5.8 4.5C11.7 14 17.4 9.5 24 9.5z"></path>
  <path fill="#4285F4" d="M46.1 24.5c0-1.5-.1-2.6-.3-3.8H24v7.2h12.7c-.6 3-2.4 5.6-5.2 7.3l5.9 4.6c3.4-3.1 5.7-7.8 5.7-15.3z"></path>
  <path fill="#FBBC05" d="M10.1 28.7c-.4-1.1-.6-2.3-.6-3.7s.2-2.6.6-3.7l-5.8-4.5C2.8 19.4 2 22.1 2 25s.8 5.6 2.3 8.2l5.8-4.5z"></path>
  <path fill="#34A853" d="M24 47.5c6.5 0 11.9-2.2 15.9-6l-5.9-4.6c-1.6 1.1-3.7 1.8-6 1.8-6.6 0-12.3-4.5-13.9-10.6l-5.8 4.5C7.2 40.1 14.9 47.5 24 47.5z"></path>
</svg>
